<svg width="20" height="22" viewBox="0 0 20 22" fill="none" xmlns="http://www.w3.org/2000/svg">
<path d="M19.3755 20.2418V16.8933C19.3755 15.9558 19.2416 15.0182 18.7058 14.0806C18.1701 13.143 17.5004 12.3394 16.5628 11.8036C15.6252 11.1339 13.6161 11 12.6786 11L10.5355 13.277L11.3392 15.0182V19.0364L9.99978 20.5097L8.66039 19.0364V15.0182L9.59796 13.277L7.32099 11C6.24948 11 4.24039 11.1339 3.30281 11.8036C2.36524 12.3394 1.82948 13.143 1.29372 14.0806C0.757963 15.0182 0.624023 15.8218 0.624023 16.8933V20.2418C0.624023 20.2418 4.10645 21.7151 9.99978 21.7151C15.8931 21.7151 19.3755 20.2418 19.3755 20.2418Z" fill="#132576"/>
<path d="M9.99984 0.418701C7.45499 0.418701 5.98165 2.82961 6.38347 5.5084C6.78529 8.18719 8.12469 10.0623 9.99984 10.0623C11.875 10.0623 13.2144 8.18719 13.6162 5.5084C14.018 2.69567 12.5447 0.418701 9.99984 0.418701Z" fill="#132576"/>
</svg>
