<svg width="155" height="34" viewBox="0 0 155 34" fill="none" xmlns="http://www.w3.org/2000/svg">
<path d="M141.643 0.0157537L141.5 0L128 1.40733V26.0129L141.5 34L155 26.0129V1.40733L141.643 0.0157537ZM153.234 25.0151L141.5 31.9573L129.766 25.0151V14.9293L141.451 21.8451L141.47 23.0984L133.454 18.3548L133.443 19.5801L141.489 24.3885L141.509 25.675L133.464 20.9174L133.454 22.1427L141.5 26.9511L149.624 22.1182V20.8929V16.909L153.243 14.7595L153.234 25.0151ZM153.234 13.4519L150.015 15.3319L148.533 16.2071L141.467 12.0201L141.456 13.2454L147.496 16.818L147.443 16.8495L147.313 16.9247L146.454 17.4166L141.467 14.4689L141.456 15.6942L145.392 18.0222L144.459 18.6314L144.438 18.6436L141.467 16.902L141.456 18.1273L143.403 19.2615L141.416 20.4483L129.797 13.5762L141.435 6.61831L153.234 13.4519ZM153.234 12.2266L141.44 5.31075L129.766 12.2196V2.9897L141.5 1.76442L153.234 2.9897V12.2266Z" fill="#192144"/>
<path d="M5.36 14.8H3.06V19.36C3.06 19.5867 2.98 19.7867 2.82 19.96C2.66 20.12 2.47333 20.2 2.26 20.2C2.04667 20.2 1.86 20.12 1.7 19.96C1.54 19.7867 1.46 19.5867 1.46 19.36V6.86C1.46 6.60667 1.55333 6.38667 1.74 6.2C1.94 6 2.16667 5.9 2.42 5.9H5.36C6.90667 5.9 8.04 6.32667 8.76 7.18C9.49333 8.02 9.86 9.08667 9.86 10.38C9.86 11.78 9.45333 12.8667 8.64 13.64C7.84 14.4133 6.74667 14.8 5.36 14.8ZM3.06 7.46V13.24H5.36C7.29333 13.24 8.26 12.28 8.26 10.36C8.26 8.42667 7.29333 7.46 5.36 7.46H3.06ZM16.6939 14.38V13.24C16.6939 11.8133 15.9806 11.1 14.5539 11.1C14.0606 11.1 13.5539 11.24 13.0339 11.52C12.7139 11.6267 12.5406 11.68 12.5139 11.68C12.1672 11.68 11.9806 11.46 11.9539 11.02C11.9139 10.5933 12.1739 10.2733 12.7339 10.06C13.3072 9.83333 13.9806 9.72 14.7539 9.72C15.9806 9.72 16.8672 10.06 17.4139 10.74C17.9739 11.4067 18.2539 12.4133 18.2539 13.76V18.16C18.2539 18.56 18.3739 18.76 18.6139 18.76C18.6272 18.76 18.6472 18.76 18.6739 18.76C18.7139 18.7467 18.7472 18.74 18.7739 18.74C18.9606 18.74 19.1006 18.8067 19.1939 18.94C19.3006 19.0733 19.3539 19.2333 19.3539 19.42C19.3539 19.8733 19.0539 20.1 18.4539 20.1C17.7739 20.1 17.2739 19.7667 16.9539 19.1C16.1806 19.8067 15.2672 20.16 14.2139 20.16C13.2139 20.16 12.4539 19.8933 11.9339 19.36C11.4139 18.8133 11.1539 18.0733 11.1539 17.14V17.06C11.1539 15.0867 12.3272 14.1 14.6739 14.1C15.3806 14.1 16.0539 14.1933 16.6939 14.38ZM14.6539 15.42C13.8939 15.42 13.3739 15.5667 13.0939 15.86C12.8272 16.1533 12.6939 16.56 12.6939 17.08V17.16C12.6939 18.2267 13.2806 18.76 14.4539 18.76C15.2672 18.76 16.0139 18.4667 16.6939 17.88V15.72C16.0272 15.52 15.3472 15.42 14.6539 15.42ZM27.2167 12.58C27.2167 13.8467 26.5834 14.6 25.3167 14.84C26.7167 15.1067 27.4167 15.92 27.4167 17.28C27.4167 18.1733 27.1234 18.88 26.5367 19.4C25.9634 19.9067 25.1167 20.16 23.9967 20.16C23.2767 20.16 22.5834 20.0667 21.9167 19.88C21.2501 19.6933 20.9167 19.3933 20.9167 18.98C20.9167 18.8067 20.9834 18.6467 21.1167 18.5C21.2501 18.3533 21.4501 18.28 21.7167 18.28C21.7701 18.28 21.8234 18.2933 21.8767 18.32C22.6367 18.6267 23.3634 18.78 24.0567 18.78C25.2834 18.78 25.8967 18.2467 25.8967 17.18C25.8967 17.0067 25.8701 16.8467 25.8167 16.7C25.7767 16.5533 25.6834 16.3933 25.5367 16.22C25.4034 16.0333 25.1634 15.8867 24.8167 15.78C24.4834 15.66 24.0634 15.5867 23.5567 15.56C23.3567 15.5467 23.1967 15.5333 23.0767 15.52C22.9701 15.4933 22.8567 15.4267 22.7367 15.32C22.6301 15.2133 22.5767 15.0667 22.5767 14.88C22.5767 14.7333 22.5967 14.62 22.6367 14.54C22.6901 14.4467 22.7834 14.38 22.9167 14.34C23.0501 14.2867 23.1301 14.26 23.1567 14.26C23.1967 14.2467 23.3101 14.2333 23.4967 14.22C24.9634 14.1 25.6967 13.52 25.6967 12.48C25.6967 11.56 25.0834 11.1 23.8567 11.1C23.3101 11.1 22.7567 11.22 22.1967 11.46C22.0634 11.5267 21.9434 11.56 21.8367 11.56C21.6367 11.56 21.4634 11.4933 21.3167 11.36C21.1834 11.2133 21.1167 11.0467 21.1167 10.86C21.1167 10.4733 21.4101 10.1867 21.9967 10C22.5967 9.81333 23.2367 9.72 23.9167 9.72C24.9834 9.72 25.7967 9.98 26.3567 10.5C26.9301 11.02 27.2167 11.7133 27.2167 12.58ZM33.6208 20.14C32.9008 20.14 32.1608 20.0133 31.4008 19.76V23.54C31.4008 23.7533 31.3274 23.9333 31.1808 24.08C31.0474 24.2267 30.8608 24.3 30.6208 24.3C30.3808 24.3 30.1874 24.2267 30.0408 24.08C29.9074 23.9333 29.8408 23.7533 29.8408 23.54V12.62C29.8408 12.0067 29.7341 11.54 29.5208 11.22C29.4274 11.0733 29.3808 10.94 29.3808 10.82C29.3808 10.62 29.4541 10.4533 29.6008 10.32C29.7474 10.1867 29.9074 10.12 30.0808 10.12C30.3741 10.12 30.6341 10.28 30.8608 10.6C31.9541 10.0133 32.9274 9.72 33.7808 9.72C34.8074 9.72 35.5941 10.0667 36.1408 10.76C36.6874 11.44 36.9608 12.3533 36.9608 13.5V16.1C36.9608 17.38 36.7008 18.3733 36.1808 19.08C35.6741 19.7867 34.8208 20.14 33.6208 20.14ZM31.4008 12.62V18.36C32.0008 18.64 32.6741 18.78 33.4208 18.78C34.1408 18.78 34.6474 18.5733 34.9408 18.16C35.2474 17.7333 35.4008 17.0467 35.4008 16.1V13.5C35.4008 11.9133 34.7541 11.12 33.4608 11.12C32.7541 11.12 32.0341 11.3467 31.3008 11.8C31.3674 12.1333 31.4008 12.4067 31.4008 12.62ZM44.2916 14.38V13.24C44.2916 11.8133 43.5782 11.1 42.1516 11.1C41.6582 11.1 41.1516 11.24 40.6316 11.52C40.3116 11.6267 40.1382 11.68 40.1116 11.68C39.7649 11.68 39.5782 11.46 39.5516 11.02C39.5116 10.5933 39.7716 10.2733 40.3316 10.06C40.9049 9.83333 41.5782 9.72 42.3516 9.72C43.5782 9.72 44.4649 10.06 45.0116 10.74C45.5716 11.4067 45.8516 12.4133 45.8516 13.76V18.16C45.8516 18.56 45.9716 18.76 46.2116 18.76C46.2249 18.76 46.2449 18.76 46.2716 18.76C46.3116 18.7467 46.3449 18.74 46.3716 18.74C46.5582 18.74 46.6982 18.8067 46.7916 18.94C46.8982 19.0733 46.9516 19.2333 46.9516 19.42C46.9516 19.8733 46.6516 20.1 46.0516 20.1C45.3716 20.1 44.8716 19.7667 44.5516 19.1C43.7782 19.8067 42.8649 20.16 41.8116 20.16C40.8116 20.16 40.0516 19.8933 39.5316 19.36C39.0116 18.8133 38.7516 18.0733 38.7516 17.14V17.06C38.7516 15.0867 39.9249 14.1 42.2716 14.1C42.9782 14.1 43.6516 14.1933 44.2916 14.38ZM42.2516 15.42C41.4916 15.42 40.9716 15.5667 40.6916 15.86C40.4249 16.1533 40.2916 16.56 40.2916 17.08V17.16C40.2916 18.2267 40.8782 18.76 42.0516 18.76C42.8649 18.76 43.6116 18.4667 44.2916 17.88V15.72C43.6249 15.52 42.9449 15.42 42.2516 15.42ZM48.4 10.46C48.4 7.84667 49.72 6.40667 52.36 6.14C52.4533 6.12667 52.5933 6.11333 52.78 6.1C52.9667 6.08667 53.1 6.07333 53.18 6.06C53.26 6.04667 53.4067 6 53.62 5.92C53.8333 5.84 54.1067 5.72667 54.44 5.58C54.52 5.54 54.6133 5.52 54.72 5.52C54.92 5.52 55.0867 5.59333 55.22 5.74C55.3533 5.87333 55.42 6.04 55.42 6.24C55.42 6.93333 54.4067 7.36 52.38 7.52C52.14 7.54667 51.94 7.57333 51.78 7.6C51.6333 7.62667 51.4267 7.7 51.16 7.82C50.9067 7.92667 50.7 8.07333 50.54 8.26C50.3933 8.44667 50.26 8.72 50.14 9.08C50.02 9.44 49.96 9.86667 49.96 10.36V11.38C50.5467 10.6467 51.3733 10.28 52.44 10.28C53.4933 10.28 54.3267 10.62 54.94 11.3C55.5667 11.9667 55.88 12.8133 55.88 13.84V16.6C55.88 17.64 55.5533 18.4933 54.9 19.16C54.2467 19.8267 53.3267 20.16 52.14 20.16C50.9533 20.16 50.0333 19.8267 49.38 19.16C48.7267 18.4933 48.4 17.64 48.4 16.6V10.46ZM50.52 18.16C50.8933 18.5333 51.4333 18.72 52.14 18.72C52.8467 18.72 53.3867 18.5333 53.76 18.16C54.1333 17.7867 54.32 17.2667 54.32 16.6V13.82C54.32 12.42 53.6267 11.72 52.24 11.72C51.5467 11.72 51 11.9 50.6 12.26C50.2 12.6067 49.9867 13.0933 49.96 13.72V16.6C49.96 17.2667 50.1467 17.7867 50.52 18.16ZM64.1969 19.16C63.5435 19.8267 62.6235 20.16 61.4369 20.16C60.2502 20.16 59.3302 19.8267 58.6769 19.16C58.0235 18.4933 57.6969 17.64 57.6969 16.6V13.26C57.6969 12.22 58.0235 11.3667 58.6769 10.7C59.3302 10.0333 60.2502 9.7 61.4369 9.7C62.6235 9.7 63.5435 10.0333 64.1969 10.7C64.8502 11.3667 65.1769 12.22 65.1769 13.26V16.6C65.1769 17.64 64.8502 18.4933 64.1969 19.16ZM59.8169 18.16C60.1902 18.5333 60.7302 18.72 61.4369 18.72C62.1435 18.72 62.6835 18.5333 63.0569 18.16C63.4302 17.7867 63.6169 17.2667 63.6169 16.6V13.24C63.6169 12.5733 63.4302 12.06 63.0569 11.7C62.6835 11.3267 62.1435 11.14 61.4369 11.14C60.7302 11.14 60.1902 11.3267 59.8169 11.7C59.4435 12.06 59.2569 12.5733 59.2569 13.24V16.6C59.2569 17.2667 59.4435 17.7867 59.8169 18.16ZM70.7975 11.38V19.38C70.7975 19.6067 70.7175 19.7933 70.5575 19.94C70.4108 20.0867 70.2308 20.16 70.0175 20.16C69.8042 20.16 69.6175 20.0867 69.4575 19.94C69.3108 19.7933 69.2375 19.6067 69.2375 19.38V11.38H67.1575C66.9575 11.38 66.7842 11.3133 66.6375 11.18C66.5042 11.0333 66.4375 10.8533 66.4375 10.64C66.4375 10.4267 66.5042 10.2533 66.6375 10.12C66.7842 9.97333 66.9575 9.9 67.1575 9.9H72.8775C73.0775 9.9 73.2442 9.97333 73.3775 10.12C73.5242 10.2533 73.5975 10.4267 73.5975 10.64C73.5975 10.8533 73.5242 11.0333 73.3775 11.18C73.2442 11.3133 73.0775 11.38 72.8775 11.38H70.7975ZM80.3267 14.38V13.24C80.3267 11.8133 79.6134 11.1 78.1867 11.1C77.6934 11.1 77.1867 11.24 76.6667 11.52C76.3467 11.6267 76.1734 11.68 76.1467 11.68C75.8001 11.68 75.6134 11.46 75.5867 11.02C75.5467 10.5933 75.8067 10.2733 76.3667 10.06C76.9401 9.83333 77.6134 9.72 78.3867 9.72C79.6134 9.72 80.5001 10.06 81.0467 10.74C81.6067 11.4067 81.8867 12.4133 81.8867 13.76V18.16C81.8867 18.56 82.0067 18.76 82.2467 18.76C82.2601 18.76 82.2801 18.76 82.3067 18.76C82.3467 18.7467 82.3801 18.74 82.4067 18.74C82.5934 18.74 82.7334 18.8067 82.8267 18.94C82.9334 19.0733 82.9867 19.2333 82.9867 19.42C82.9867 19.8733 82.6867 20.1 82.0867 20.1C81.4067 20.1 80.9067 19.7667 80.5867 19.1C79.8134 19.8067 78.9001 20.16 77.8467 20.16C76.8467 20.16 76.0867 19.8933 75.5667 19.36C75.0467 18.8133 74.7867 18.0733 74.7867 17.14V17.06C74.7867 15.0867 75.9601 14.1 78.3067 14.1C79.0134 14.1 79.6867 14.1933 80.3267 14.38ZM78.2867 15.42C77.5267 15.42 77.0067 15.5667 76.7267 15.86C76.4601 16.1533 76.3267 16.56 76.3267 17.08V17.16C76.3267 18.2267 76.9134 18.76 78.0867 18.76C78.9001 18.76 79.6467 18.4667 80.3267 17.88V15.72C79.6601 15.52 78.9801 15.42 78.2867 15.42ZM86.5552 19.38C86.5552 19.6067 86.4752 19.7933 86.3152 19.94C86.1685 20.0867 85.9885 20.16 85.7752 20.16C85.5618 20.16 85.3752 20.0867 85.2152 19.94C85.0685 19.7933 84.9952 19.6067 84.9952 19.38V10.56C84.9952 10.3467 85.0685 10.1667 85.2152 10.02C85.3752 9.86 85.5618 9.78 85.7752 9.78C85.9885 9.78 86.1685 9.86 86.3152 10.02C86.4752 10.1667 86.5552 10.3467 86.5552 10.56V14.12H90.7952V10.56C90.7952 10.3467 90.8685 10.1667 91.0152 10.02C91.1752 9.86 91.3618 9.78 91.5752 9.78C91.7885 9.78 91.9685 9.86 92.1152 10.02C92.2752 10.1667 92.3552 10.3467 92.3552 10.56V19.38C92.3552 19.6067 92.2752 19.7933 92.1152 19.94C91.9685 20.0867 91.7885 20.16 91.5752 20.16C91.3618 20.16 91.1752 20.0867 91.0152 19.94C90.8685 19.7933 90.7952 19.6067 90.7952 19.38V15.44H86.5552V19.38ZM101.209 19.16C100.555 19.8267 99.6353 20.16 98.4486 20.16C97.2619 20.16 96.3419 19.8267 95.6886 19.16C95.0353 18.4933 94.7086 17.64 94.7086 16.6V13.26C94.7086 12.22 95.0353 11.3667 95.6886 10.7C96.3419 10.0333 97.2619 9.7 98.4486 9.7C99.6353 9.7 100.555 10.0333 101.209 10.7C101.862 11.3667 102.189 12.22 102.189 13.26V16.6C102.189 17.64 101.862 18.4933 101.209 19.16ZM96.8286 18.16C97.2019 18.5333 97.7419 18.72 98.4486 18.72C99.1553 18.72 99.6953 18.5333 100.069 18.16C100.442 17.7867 100.629 17.2667 100.629 16.6V13.24C100.629 12.5733 100.442 12.06 100.069 11.7C99.6953 11.3267 99.1553 11.14 98.4486 11.14C97.7419 11.14 97.2019 11.3267 96.8286 11.7C96.4553 12.06 96.2686 12.5733 96.2686 13.24V16.6C96.2686 17.2667 96.4553 17.7867 96.8286 18.16Z" fill="#444444"/>
</svg>
